<svg id="Layer_1" enable-background="new 0 0 128 128" height="512" viewBox="0 0 128 128" width="512" xmlns="http://www.w3.org/2000/svg"><path d="m92.8 77.7h-9.2c-.3-16.7-7.7-24.5-14.9-32.1-6.7-6.9-13-13.6-13-27.2 0-1-.8-1.7-1.7-1.8-.5 0-.9.2-1.2.5-15 15-9.6 25.7-4.8 35.1 2.2 4.5 4.4 8.7 4.4 13.1 0 6.4-3.9 8.7-7.5 8.7-3.1 0-6.4-1.8-6.4-5.1.1-1.9.3-3.9.8-5.8 1.2-6 2.6-12.7-6.5-19.1-.8-.6-1.9-.4-2.4.4-.3.4-.4.8-.3 1.3 1.2 7.5-2.2 13.1-5.9 18.9-2.6 4.2-5.3 8.4-6.4 13.7-1.6 7.2.4 14.6 5.6 20.8 5.1 5.8 11.8 9.9 19.4 11.6 2.5.5 5 .7 7.5.7 2.6 0 5.1-.2 7.7-.5h.1c4.2-.9 8.1-2.7 11.6-5.2h23.1c5.6 0 10.1-4.5 10.1-10.1v-7.7c0-5.7-4.6-10.2-10.1-10.2zm-35.5 29.7c-3.8.6-10.4.7-13.8-.1-13.1-3.1-25.3-14.7-22.3-28.2 1-4.6 3.6-8.7 6-12.6 3.2-5.1 6.5-10.3 6.7-17 3.8 4.2 3 8.3 2 13-.5 2.1-.8 4.3-.9 6.5 0 5.4 5 8.6 9.9 8.6 2.8 0 5.5-1 7.5-3 1.6-1.5 3.4-4.4 3.4-9.3 0-5.3-2.4-10.1-4.7-14.7-4.3-8.5-8.3-16.5 1.3-28 1.2 12.3 7.6 19 13.7 25.4 7 7.4 13.7 14.4 13.9 29.6h-18.1c-5.6 0-10.1 4.5-10.1 10.1v7.7c0 5.6 4.5 10.1 10.1 10.1h.7c-1.7.8-3.5 1.4-5.3 1.9zm42.1-11.9c0 3.6-2.9 6.6-6.6 6.6h-30.9c-3.6 0-6.6-2.9-6.6-6.6v-7.7c0-3.6 2.9-6.6 6.6-6.6h30.9c3.6 0 6.6 2.9 6.6 6.6z"/><g><path d="m66.8 91.4 2-2.8c.6-.8.4-1.9-.4-2.4s-1.9-.4-2.4.4l-1.2 1.6v-2.3c0-1-.8-1.8-1.8-1.8s-1.8.8-1.8 1.8v5.5 5.6c0 1 .8 1.8 1.8 1.8s1.8-.8 1.8-1.8v-2.3l2.3 3.3c.3.5.9.7 1.4.7.4 0 .7-.1 1-.3.8-.6 1-1.7.4-2.4z"/><path d="m76.2 89.2h2.6c1 0 1.8-.8 1.8-1.8s-.8-1.8-1.8-1.8h-2.6c-2.6 0-4.7 2.1-4.7 4.7v3.7c0 2.6 2.1 4.7 4.7 4.7h2.6c1 0 1.8-.8 1.8-1.8s-.8-1.8-1.8-1.8h-2.6c-.7 0-1.2-.5-1.2-1.2v-3.7c0-.5.5-1 1.2-1z"/><path d="m86.5 85.7h-3.1c-1 0-1.8.8-1.8 1.8s.8 1.8 1.8 1.8h3.1c.4 0 .7.3.7.7v.6h-2c-2 0-3.6 1.6-3.6 3.6v1.2c0 2 1.6 3.6 3.6 3.6h3.7c1 0 1.8-.8 1.8-1.8v-4.8-2.4c0-2.5-1.9-4.3-4.2-4.3zm.7 9.5h-2l.1-1.2h2v1.2z"/><path d="m93.6 84.2c-1 0-1.8.8-1.8 1.8v11c0 1 .8 1.8 1.8 1.8s1.8-.8 1.8-1.8v-11c-.1-1-.8-1.8-1.8-1.8z"/></g></svg>